<?xml version="1.0" encoding="UTF-8" standalone="no"?>
<svg width="37px" height="36px" viewBox="0 0 37 36" version="1.1" xmlns="http://www.w3.org/2000/svg" xmlns:xlink="http://www.w3.org/1999/xlink">
    <!-- Generator: Sketch 3.6.1 (26313) - http://www.bohemiancoding.com/sketch -->
    <title>Instagram</title>
    <desc>Created with Sketch.</desc>
    <defs></defs>
    <g id="Page-1" stroke="none" stroke-width="1" fill="none" fill-rule="evenodd">
        <g id="Footer-and-header" transform="translate(-1301.000000, -951.000000)">
            <g id="Group" transform="translate(0.000000, 893.000000)">
                <g id="Group-7" transform="translate(1204.000000, 57.000000)">
                    <g id="Instagram" transform="translate(98.245833, 1.861842)">
                        <ellipse id="Oval-1" stroke="#000000" cx="17.2361111" cy="17.2368421" rx="17.2361111" ry="17.2368421"></ellipse>
                        <g id="Page-1" transform="translate(8.618056, 8.618421)" fill="#000000">
                            <path d="M17.9865139,14.3200811 C17.9865139,14.1254197 17.9736443,13.4280171 17.9563507,12.4571232 C17.9330245,11.1970526 17.9000461,9.48934123 17.8686764,7.88660219 C17.8686764,7.88660219 17.8686764,7.88660219 17.8686764,7.88499342 L17.8686764,7.88378684 C17.8638503,7.63684035 17.8590242,7.3935136 17.8546002,7.15461096 C17.8200131,5.3588193 17.7930673,3.81278947 17.7930673,3.39370439 L17.7930673,3.32130965 C17.794676,3.24247982 17.7962847,3.16566096 17.7962847,3.09045088 C17.794676,2.57041535 17.7616976,2.13524254 17.6563275,1.74873509 C17.5779032,1.46116711 17.4536308,1.19732851 17.2686299,0.978937719 C17.1302814,0.815245175 16.9589544,0.680108333 16.7687252,0.576744737 C16.4827781,0.422704825 16.1562113,0.334624561 15.7854051,0.281132895 C15.4129902,0.227641228 14.991912,0.21034693 14.500453,0.209140351 L14.3918655,0.209140351 C14.0652987,0.21034693 13.7572319,0.211955702 13.46485,0.211955702 C11.8501137,0.211955702 10.7565973,0.187019737 10.0073436,0.161681579 C9.25648111,0.136745614 8.85712042,0.111407456 8.58726037,0.111407456 L8.5683581,0.111407456 C8.42357477,0.111407456 8.27758491,0.113016228 8.12998634,0.113016228 C7.3304606,0.113016228 6.50398907,0.103765789 5.67751755,0.103765789 C4.81806759,0.103765789 3.95580241,0.113016228 3.11686343,0.154039912 C2.44925139,0.187019737 1.90550954,0.329798246 1.47357259,0.589212719 C1.14982097,0.783874123 0.895645787,1.04489737 0.71466662,1.34010702 C0.441589167,1.78493246 0.322142917,2.28888026 0.262218704,2.81213333 C0.202696667,3.33699518 0.20430537,3.88840175 0.20430537,4.44624342 C0.20430537,7.10594561 0.202696667,8.91420526 0.202696667,10.4678768 C0.202696667,11.2441092 0.202696667,11.9571974 0.20430537,12.6815469 L0.20430537,12.6940149 C0.20430537,13.0085298 0.193044444,13.4167557 0.193044444,13.8567548 C0.193044444,14.3345601 0.205914074,14.8481605 0.267044815,15.3352162 C0.329784259,15.8222719 0.430328241,16.2823807 0.655144583,16.6753232 C0.821645417,16.9612825 1.02916819,17.1969675 1.26484329,17.3775522 C1.61795375,17.6510434 2.02173838,17.8034746 2.42552301,17.8867285 C2.83091634,17.9699825 3.24234231,17.9888855 3.64009431,17.9900921 C4.07685736,17.9900921 4.49954426,17.9667649 4.86994829,17.9667649 L4.98014449,17.9667649 C5.27534162,17.9715912 5.59104972,17.9732 5.92405139,17.9732 C8.32142208,17.9732 11.6550583,17.883511 14.6054209,17.883511 C15.2935439,17.883511 15.8388945,17.8348456 16.2945598,17.7057417 C16.6352028,17.6100197 16.9324108,17.4624149 17.1692925,17.2504592 C17.3486629,17.091593 17.488218,16.9001491 17.5919794,16.6926175 C17.7492301,16.3785048 17.8292631,16.0326189 17.8843612,15.6461114 C17.9378506,15.2596039 17.9643943,14.8308662 17.9893292,14.340593 L17.9893292,14.328125 C17.9849052,14.328125 17.9865139,14.3249075 17.9865139,14.3200811 L17.9865139,14.3200811 Z M1.17676676,3.07315658 C1.20331037,2.76346798 1.25036495,2.48555263 1.32597403,2.25147632 C1.44059417,1.89633991 1.59945366,1.64979561 1.86167236,1.45955833 C2.12389106,1.27092982 2.52445829,1.12654254 3.1590919,1.09678026 C3.97631338,1.05736535 4.8228937,1.04650614 5.67430014,1.04650614 C6.49433685,1.04650614 7.31919968,1.05575658 8.12676894,1.05575658 C8.2743675,1.05575658 8.42196606,1.05575658 8.56996681,1.05414781 L8.58404296,1.05414781 C8.79438097,1.05414781 9.21545917,1.07948596 9.97275644,1.10442193 C10.7316624,1.12976009 11.8376462,1.15469605 13.4620348,1.15469605 C13.7556232,1.15469605 14.0652987,1.15308728 14.3934742,1.15147851 L14.4972356,1.15147851 C15.0502275,1.15147851 15.4853819,1.17842544 15.8091335,1.23955877 C16.0524499,1.28500658 16.2269943,1.34935746 16.3492557,1.42336096 C16.4437671,1.4784614 16.5097239,1.53798596 16.5676373,1.61359825 C16.6541051,1.7250057 16.7264968,1.88387193 16.7783775,2.12719868 C16.8286494,2.36931886 16.8535844,2.69107325 16.8535844,3.09205965 C16.8535844,3.16083465 16.8519756,3.23162061 16.8519756,3.30562412 L16.8519756,3.39651974 C16.8519756,3.85863947 16.8821388,5.52090307 16.9179325,7.42005833 C15.7335244,7.42166711 14.9215312,7.42810219 14.2016363,7.42810219 C13.8529498,7.42810219 13.5215568,7.42649342 13.183729,7.42166711 C13.0377392,7.07940088 12.8507274,6.75080921 12.6074109,6.44916447 C12.2538983,6.01238289 11.7885807,5.63995219 11.2106539,5.38254868 C10.6327271,5.12474298 9.94581065,4.98196447 9.14789361,4.98196447 L9.12135,4.98196447 C7.88626773,4.97874693 6.81205583,5.42799649 6.07044343,6.23720877 C5.78771375,6.5448864 5.55485389,6.90002281 5.3742769,7.29618289 C4.03905282,7.29618289 2.78547046,7.29296535 1.13896222,7.2270057 L1.13896222,4.44905877 C1.13896222,3.95275263 1.14057093,3.4846 1.17676676,3.07315658 L1.17676676,3.07315658 Z M6.76138167,6.8718693 C7.31919968,6.2701886 8.10464926,5.92309605 9.12135,5.91987851 L9.12456741,5.91987851 L9.12738264,5.91987851 L9.13060005,5.91987851 L9.14950231,5.91987851 C9.83601662,5.91987851 10.3857911,6.0409386 10.828989,6.23881754 C11.4901662,6.53563596 11.928538,7.00217982 12.2225286,7.5708807 C12.2945181,7.71084386 12.356051,7.85844868 12.4091382,8.00927105 C12.4139643,8.02817412 12.4187904,8.04546842 12.4252252,8.06276272 C12.5744325,8.50879474 12.6480307,8.99102412 12.6512481,9.4623943 L12.6512481,9.48773246 C12.6512481,10.3110215 12.3403661,11.1073636 11.7620371,11.6965763 C11.1825016,12.2841803 10.3355191,12.6799382 9.19173079,12.6815469 C8.47384676,12.6847645 7.61761421,12.4241434 6.97373056,11.9008904 C6.64997894,11.6398671 6.37649931,11.3148952 6.18184616,10.9219526 C5.98880171,10.5278035 5.87096417,10.0628684 5.86935546,9.50502675 C5.86935546,8.36440746 6.20557454,7.47676754 6.76138167,6.8718693 L6.76138167,6.8718693 Z M16.7281055,16.3125452 C16.6665725,16.4223439 16.599007,16.503989 16.5113326,16.5763838 C16.3794189,16.6829649 16.1843636,16.7774803 15.8718729,16.8450487 C15.5605887,16.9126171 15.1411193,16.9472057 14.5993883,16.9472057 C11.6317321,16.9472057 8.29326977,17.0364925 5.91801875,17.0364925 C5.58823449,17.0364925 5.27534162,17.0348838 4.98617713,17.0304596 C4.94555736,17.0304596 4.90453542,17.0288509 4.86391565,17.0288509 C4.45530491,17.0288509 4.03583542,17.0521781 3.63365949,17.0521781 C3.14501574,17.0537868 2.68492648,17.0163829 2.31894639,16.8904965 C2.13515199,16.8277544 1.9746838,16.7461092 1.83352005,16.6359083 C1.69195412,16.5261096 1.56929046,16.3909728 1.46110514,16.2039531 C1.34165889,16.0044654 1.24433231,15.6432961 1.19406032,15.2205912 C1.14057093,14.7978864 1.12810347,14.3172658 1.12810347,13.8567548 C1.12810347,13.4324412 1.13896222,13.0290417 1.13896222,12.6940149 L1.13896222,12.6799382 C1.13735352,11.9571974 1.13735352,11.2441092 1.13735352,10.4678768 L1.13735352,8.16331096 C2.65516546,8.22283553 3.84882361,8.23087939 5.06339491,8.23248816 C4.97370968,8.6314636 4.92504639,9.05577719 4.92504639,9.50341798 C4.92504639,10.1963965 5.07425366,10.8121539 5.33526583,11.3370158 C5.72457213,12.125314 6.3515644,12.6988412 7.04129611,13.0696632 C7.73263653,13.4420939 8.48953162,13.619461 9.18891556,13.6210697 C10.5539006,13.6242873 11.6723519,13.1279811 12.4296492,12.3549662 C13.1885551,11.5819513 13.5891224,10.5467066 13.5891224,9.48612368 L13.5891224,9.45314386 C13.585905,9.09478991 13.5485026,8.72557675 13.4745022,8.35958114 C13.7133947,8.36118991 13.951885,8.36279868 14.2004298,8.36279868 C14.9275638,8.36279868 15.7431766,8.3563636 16.9336174,8.35475482 C16.9384435,8.57636316 16.9416609,8.79958026 16.946487,9.0211886 C16.9698132,10.268389 16.9951503,11.5047303 17.0124438,12.4728088 C17.0313461,13.421582 17.0422049,14.1189846 17.0422049,14.3043956 C17.0124438,14.8730965 16.9810741,15.336825 16.9179325,15.6919614 C16.8724866,15.9634417 16.8081385,16.1661469 16.7281055,16.3125452 L16.7281055,16.3125452 Z" id="Fill-1"></path>
                            <path d="M7.97756167,11.4970886 C8.37973759,11.7122618 8.81328324,11.8160276 9.22189398,11.8160276 C9.99769134,11.8192452 10.6560533,11.5316772 11.0992512,11.0776013 C11.5436556,10.6235254 11.777722,10.0186272 11.777722,9.39965219 L11.777722,9.38074912 C11.7728959,8.79958026 11.6236886,8.16491974 11.2074365,7.64649298 C11.0003159,7.38868728 10.7236189,7.16707895 10.3841824,7.01786535 C10.0451481,6.86704298 9.64900481,6.78700658 9.19977431,6.78700658 L9.18248074,6.78700658 C9.18248074,6.78700658 9.18248074,6.78700658 9.18087204,6.78700658 C8.47545546,6.78378904 7.83760444,7.04762763 7.40245009,7.52382412 C6.96407833,8.00002061 6.73805546,8.66283465 6.73805546,9.40769605 C6.73805546,9.80667149 6.82452329,10.1694496 6.97855667,10.4791382 C7.20940565,10.945682 7.57860315,11.2819154 7.97756167,11.4970886 L7.97756167,11.4970886 Z M8.09539921,8.16170219 C8.34836787,7.88981974 8.6970544,7.7313557 9.18408944,7.72813816 L9.18730685,7.72813816 L9.19173079,7.72813816 L9.1981656,7.72813816 C9.53760208,7.72813816 9.79660338,7.78766272 10.0009088,7.87896053 C10.3041494,8.01570614 10.497596,8.22122675 10.6339337,8.48546754 C10.7690648,8.74769737 10.8350216,9.07307149 10.8366303,9.39040175 L10.8366303,9.40126096 C10.8366303,9.78294211 10.6922492,10.1489377 10.4284218,10.4192114 C10.1613769,10.6878763 9.77649458,10.8748961 9.22189398,10.8765048 C8.89170755,10.8797224 8.47867287,10.753836 8.18347574,10.5105092 C8.03426847,10.3894491 7.90999611,10.2434531 7.82352829,10.064075 C7.73545176,9.88509912 7.68075583,9.67475219 7.68075583,9.40930482 C7.68075583,8.84824561 7.84564796,8.43519342 8.09539921,8.16170219 L8.09539921,8.16170219 Z" id="Fill-2"></path>
                            <path d="M12.1408869,2.35805746 C12.134452,2.37092763 12.1264085,2.38339561 12.1219846,2.3958636 C12.1155498,2.41154912 12.1123324,2.42723465 12.1075062,2.44292018 C12.1030823,2.45699693 12.0998649,2.46986711 12.0966475,2.48394386 C12.0934301,2.49962939 12.0934301,2.51692368 12.0918214,2.53421798 C12.0902127,2.54668596 12.0890062,2.55915395 12.0890062,2.57202412 C12.0890062,2.57483947 12.0902127,2.57805702 12.0902127,2.57966579 L12.0902127,2.58931842 L12.1831153,5.09176316 C12.1923654,5.34635132 12.4014969,5.54583904 12.6560742,5.54423026 L15.4270663,5.52854474 C15.6848611,5.52693596 15.8951991,5.31658904 15.8951991,5.05878333 L15.8951991,2.49158553 C15.8951991,2.36449254 15.8421119,2.24021491 15.750818,2.15253684 C15.6583175,2.06445658 15.5324364,2.0174 15.4053488,2.02182412 C15.4053488,2.02182412 15.2919352,2.02665044 15.1053256,2.0346943 C14.5442902,2.05641272 13.3204688,2.10226272 12.5631716,2.10226272 C12.5599542,2.10226272 12.5571389,2.10226272 12.5555302,2.1034693 L12.545878,2.1034693 C12.5318019,2.1034693 12.5193344,2.10668684 12.5068669,2.10829561 C12.4911821,2.10990439 12.4754972,2.11151316 12.4594102,2.1147307 C12.4437253,2.11794825 12.4296492,2.12398114 12.415573,2.12880746 C12.4014969,2.13363377 12.3874207,2.13805789 12.3733445,2.14449298 C12.3588662,2.15092807 12.3463987,2.15856974 12.3323226,2.1666136 C12.3198551,2.17425526 12.305779,2.18069035 12.2945181,2.18833202 C12.2820506,2.19798465 12.2711919,2.20723509 12.2583222,2.21849649 C12.2474635,2.22774693 12.2366047,2.23699737 12.2253438,2.24665 C12.214485,2.25750921 12.205235,2.27037939 12.1955828,2.28284737 C12.1863327,2.29370658 12.1766805,2.30456579 12.1690392,2.31743596 C12.154963,2.32990395 12.1469195,2.3439807 12.1408869,2.35805746 L12.1408869,2.35805746 Z M13.1020873,4.60148991 L13.044174,3.03856798 C13.6961012,3.02730658 14.4610398,3.00076184 14.9480748,2.98185877 L14.9480748,4.5906307 L13.1020873,4.60148991 Z" id="Fill-3"></path>
                        </g>
                    </g>
                </g>
            </g>
        </g>
    </g>
</svg>