<?xml version="1.0" encoding="UTF-8" standalone="no"?>
<svg width="753px" height="131px" viewBox="0 0 753 131" version="1.1" xmlns="http://www.w3.org/2000/svg" xmlns:xlink="http://www.w3.org/1999/xlink">
    <!-- Generator: Sketch 3.6.1 (26313) - http://www.bohemiancoding.com/sketch -->
    <title>Clip 2</title>
    <desc>Created with Sketch.</desc>
    <defs></defs>
    <g id="Page-1" stroke="none" stroke-width="1" fill="none" fill-rule="evenodd">
        <g id="Footer-and-header" transform="translate(-1.000000, -893.000000)" fill="#000000">
            <g id="Group" transform="translate(0.000000, 893.000000)">
                <path d="M38.3846371,9.58770996 C31.8934401,13.6203304 26.35498,18.421784 21.3994071,23.8745453 C12.819617,33.3174731 6.28921698,43.5085246 1.72361111,54.4808349 L1.72361111,130.138158 L645.674181,130.138158 C647.091164,130.114342 648.509695,130.109683 649.925647,130.138158 C649.925647,130.138158 716.643026,130.138158 744.517923,130.138158 C756.665278,130.138158 754.079861,112.039474 749.770833,111.177632 C747.185417,110.315789 742.88619,109.025448 742.876389,108.592105 C743.120515,108.510726 742.958446,107.730263 743.738194,107.730263 C747.185417,107.730263 748.443093,108.06286 749.770833,104.543002 C751.494444,99.9736842 745.461806,97.0819578 745.461806,97.0819578 C743.79155,96.4632671 741.279447,95.7089294 739.429167,95.7425821 C737.123925,95.7840007 734.653202,96.3799113 733.815495,98.7480209 C733.058258,100.88781 731.688731,103.070572 735.08392,104.543004 C735.595107,104.765111 736.117642,105.193794 735.83342,105.768477 C735.551777,106.342125 734.845607,106.315721 734.285932,106.167131 C731.109454,105.322709 727.938135,104.460684 724.785902,103.55051 C724.093659,103.350665 723.527794,102.842252 723.649014,102.151596 C723.78313,101.38794 724.602267,101.299926 725.311532,101.302514 C727.463572,101.31028 729.007965,100.74181 729.353571,98.6698433 C729.718262,96.4741387 729.844641,94.5062365 727.35009,92.9318112 C724.852444,91.3553149 722.066965,91.1823922 719.231451,91.0969663 C715.997201,90.9985971 714.878367,93.0990389 713.794094,95.2222609 C712.79648,97.1751488 713.959675,98.3006998 715.655722,99.309761 C716.238093,99.6561242 716.965413,100.077041 716.643019,100.760448 C716.199406,101.696509 715.210045,101.303032 714.468283,101.100081 C711.524444,100.293971 708.597628,99.4402296 705.67855,98.5683677 C705.014677,98.3705938 704.265177,98.0744506 704.297675,97.3397878 C704.332235,96.5362666 705.173553,96.3793936 705.859606,96.419259 C708.655917,96.5823448 709.482792,95.1202675 710.028539,93.1202659 C710.61349,90.9768523 710.051236,89.3392636 708.045175,87.9724491 C705.293741,86.0961856 702.192059,86.1039516 698.916542,86.3985415 C695.900488,86.670869 695.222688,88.6879558 694.282847,90.5300489 C693.384272,92.2913758 694.439659,93.4371183 696.133127,94.332796 C696.723236,94.6449889 697.51555,95.0451963 696.931631,95.7311922 C696.670621,96.0382077 695.811765,96.2183787 695.337718,96.1049952 C692.244805,95.3667083 689.182326,94.5409246 686.116236,93.72446 C685.374989,93.5266861 684.842138,93.0974857 684.955104,92.3804258 C685.078388,91.6110749 685.836657,91.413301 686.561913,91.4914786 C688.555078,91.7063377 690.056657,91.4412586 690.550306,89.4355619 C691.041891,87.441773 692.058075,85.4453955 689.912741,83.7073667 C687.130873,81.4521228 683.78314,80.5145088 680.053178,81.161157 C677.176913,81.6597336 675.89353,83.683551 675.033126,85.9041068 C674.592092,87.0405301 674.990828,87.8476755 676.166919,88.5036429 C677.071684,89.0079146 678.810029,89.3630793 677.853681,90.6750141 C677.080969,91.7363662 675.684103,90.979441 674.569396,90.7381775 C672.608728,90.3146721 670.642902,89.8978972 668.698226,89.4231363 C664.115597,88.3043158 660.247393,89.3920723 656.97136,92.2188932 C655.719958,93.2988837 654.361264,94.3680018 653.460626,95.6530145 C651.125982,98.9841071 647.626079,99.4868256 643.600547,99.0664266 C642.305299,98.9302629 641.000251,98.8111843 639.697782,98.7858154 C625.310784,98.5067575 610.923787,98.9085181 596.525957,98.2592812 C582.637767,97.6323069 568.7047,98.2002597 554.782464,97.6411083 C538.869128,97.0022261 522.916588,97.3444474 506.977976,97.0819569 C475.835809,96.5678483 444.685388,96.3540247 413.542189,95.7425823 C398.208129,95.4417796 382.869943,95.7161779 367.525566,95.204658 C359.766976,94.9463093 351.999101,94.9499335 344.229163,94.9530398 C336.303445,94.9571817 328.375663,94.9608058 320.452524,94.6858897 C312.132196,94.3969949 305.033352,89.5266828 303.984671,82.4896592 C303.205253,77.2610761 303.904201,72.0754649 306.623654,67.2460537 C313.065331,55.8103726 324.406872,50.4611578 338.461675,48.5548658 C347.750731,47.295222 357.811467,49.0974497 366.290155,44.6200968 C368.895609,43.2444809 369.185505,40.5879941 369.62396,38.2597499 C369.836997,37.1264329 369.365529,35.5395821 368.861564,34.4414709 C367.819073,32.1696595 366.277775,30.1059768 363.885874,28.4476788 C355.806438,22.8489168 347.697084,18.8007643 337.749315,16.7267269 C322.301256,13.5069469 306.735073,14.3151278 291.394307,17.0296006 C279.065985,19.2108087 267.14981,22.8685906 255.178958,26.2343712 C245.797569,28.8722196 236.44455,31.804658 226.720135,33.1497277 C209.441398,35.5385466 192.557786,33.4733106 176.418001,27.7057677 C161.402208,22.3405032 146.562828,16.6143789 131.602228,11.1341777 C113.859761,4.63559616 95.5607134,0.861842105 76.5358941,0.861842105 C72.4422721,0.861842105 68.3135737,1.03683578 64.1513464,1.39717777 C54.7642833,2.208465 46.0808115,4.8054125 38.3846371,9.58770996 Z" id="Clip-2"></path>
            </g>
        </g>
    </g>
</svg>