<svg id="Layer_1" data-name="Layer 1" xmlns="http://www.w3.org/2000/svg" xmlns:xlink="http://www.w3.org/1999/xlink" viewBox="0 0 50 50"><defs><style>.cls-1{fill:none;}.cls-2{fill:#da1f27;}.cls-3{clip-path:url(#clip-path);}.cls-4{fill:#4b4b4b;}</style><clipPath id="clip-path"><rect class="cls-1" x="4" y="4.5" width="42" height="41"/></clipPath></defs><title>Hamburger menu</title><circle class="cls-2" cx="39.59" cy="15.78" r="3.03"/><circle class="cls-2" cx="39.59" cy="29.8" r="3.03"/><path class="cls-2" d="M13.43,22.41c2.93,0,5.45-1.4,5.45-4.57,0-2.9-2.51-4.54-5.45-4.54a8,8,0,0,0-3.26.75,1.53,1.53,0,0,1,.12-0.75,11,11,0,0,1,1.54-3,9.09,9.09,0,0,1,5.94-3,7.24,7.24,0,0,1,5.47,1.59C25.86,11,26.83,15,26.63,19.34,26.42,23.91,23.75,29,23.75,29a26.07,26.07,0,0,1-7.83,9.76c-1.83,1.44-3.5,2.69-4.93,3.73h4.57l0.3-.17A82.11,82.11,0,0,0,26,35.09c2-1.87,5.88-6.18,7.3-9.87a16.78,16.78,0,0,0,0-11.92c-1.5-3.6-4.89-7.6-12.25-8C15.83,5,13.14,6.53,10.72,8.8A13.65,13.65,0,0,0,7.4,14.41a6.38,6.38,0,0,0,.84,5.28A5.46,5.46,0,0,0,13.43,22.41Z"/><g class="cls-3"><g class="cls-3"><rect class="cls-4" x="4" y="21.77" width="41.58" height="4"/><rect class="cls-4" x="4" y="4.76" width="41.58" height="4"/><rect class="cls-4" x="4" y="40.66" width="41.58" height="4"/></g></g></svg>