<?xml version="1.0" encoding="UTF-8" standalone="no"?>
<svg width="978px" height="579px" viewBox="0 0 978 579" version="1.1" xmlns="http://www.w3.org/2000/svg" xmlns:xlink="http://www.w3.org/1999/xlink">
    <!-- Generator: Sketch 3.6.1 (26313) - http://www.bohemiancoding.com/sketch -->
    <title>Slider 1</title>
    <desc>Created with Sketch.</desc>
    <defs></defs>
    <g id="Page-1" stroke="none" stroke-width="1" fill="none" fill-rule="evenodd">
        <g id="Infographic-Copy" transform="translate(-232.000000, -229.000000)" fill="#DB1921">
            <g id="Slider-1" transform="translate(143.000000, 156.000000)">
                <path d="M949.857716,418 C954.024017,397.48533 972.873366,382 995.49635,382 C1021.17558,382 1041.9927,401.951912 1041.9927,426.563843 C1041.9927,451.175774 1021.17558,471.127686 995.49635,471.127686 C972.826454,471.127686 953.945859,455.578067 949.831987,435 L203.241626,435 C199.235071,457.177553 179.832082,474 156.5,474 C130.266474,474 109,452.733526 109,426.5 C109,400.266474 130.266474,379 156.5,379 C179.832082,379 199.235071,395.822447 203.241626,418 L949.857716,418 Z" id="Combined-Shape"></path>
                <text id="$475,000" font-family="CallunaSans-Black, Calluna Sans" font-size="256.687737" font-weight="700">
                    <tspan x="81.5639636" y="241">$475,000</tspan>
                </text>
                <text id="Has-been-DIRECTLY-gi" font-family="CallunaSans-Semibold, Calluna Sans" font-size="42" font-weight="500">
                    <tspan x="90" y="642">Has been </tspan>
                    <tspan x="264.048" y="642" font-family="CallunaSans-Black, Calluna Sans" font-weight="700">DIRECTLY</tspan>
                    <tspan x="456.954" y="642"> given to Music Therapy Programs </tspan>
                </text>
                <text id="2012" font-family="CallunaSans-Semibold, Calluna Sans" font-size="80" font-weight="500">
                    <tspan x="87" y="545">2012</tspan>
                </text>
                <text id="2015" font-family="CallunaSans-Semibold, Calluna Sans" font-size="80" font-weight="500">
                    <tspan x="926" y="545">2015</tspan>
                </text>
            </g>
        </g>
    </g>
</svg>
