<?xml version="1.0" encoding="UTF-8" standalone="no"?>
<svg width="461px" height="280px" viewBox="0 0 461 280" version="1.1" xmlns="http://www.w3.org/2000/svg" xmlns:xlink="http://www.w3.org/1999/xlink">
    <!-- Generator: Sketch 3.6.1 (26313) - http://www.bohemiancoding.com/sketch -->
    <title>Gift box</title>
    <desc>Created with Sketch.</desc>
    <defs></defs>
    <g id="Page-1" stroke="none" stroke-width="1" fill="none" fill-rule="evenodd">
        <g id="Home-2" transform="translate(-979.000000, 0.000000)">
            <g id="Gift-box" transform="translate(979.000000, 0.000000)">
                <rect id="Rectangle-189" fill="#ACA9A9" x="1" y="0" width="460" height="280"></rect>
                <path d="M267,0 L425,0 L178,280 L16,280 L267,0 Z" id="Path-88" fill="#4A4A4A" opacity="0.60261194"></path>
                <path d="M462.429406,230.070594 L365.5,280.499996 L462.429406,230.070594 Z" id="Path-96" fill="#4A4A4A" opacity="0.6"></path>
                <path d="M42.9999998,0 L144.500007,0 L0.508659132,145 L0.508659132,42.4999985 L42.9999998,0 Z" id="Path-87" fill="#4A4A4A" opacity="0.6"></path>
                <path d="M359.491341,114 L460.991348,114 L317,280 L317,156.499999 L359.491341,114 Z" id="Path-87" fill="#4A4A4A" opacity="0.6" transform="translate(388.995674, 197.000000) scale(-1, -1) translate(-388.995674, -197.000000) "></path>
                <g id="Page-1" opacity="0.929932369" transform="translate(430.892867, 224.206213) rotate(-50.000000) translate(-430.892867, -224.206213) translate(382.892867, 180.206213)" fill="#9B9B9B">
                    <path d="M57.3133151,19.9104424 C57.3133151,25.3960024 53.3273425,29.8392767 48.4103014,29.8392767 C43.4945753,29.8392767 39.5086027,25.3960024 39.5086027,19.9104424 C39.5086027,14.4307462 43.4945753,9.98600603 48.4103014,9.98600603 C53.3273425,9.98600603 57.3133151,14.4307462 57.3133151,19.9104424" id="Fill-1"></path>
                    <path d="M52.7934247,34.5698758 L59.8500157,71.6772977 L66.9644261,56.9457704 L80.5332165,56.9457704 L52.7934247,34.5698758 Z" id="Fill-2"></path>
                    <path d="M42.8115134,32.8286217 L29.5515056,87.0335294 L21.8115498,70.0307931 L6.34090106,76.4851731 L42.8115134,32.8286217 Z" id="Fill-3"></path>
                    <path d="M39.7808219,28.0068475 C38.6866849,27.8529234 37.7266849,27.5494732 37.3150685,27.5494732 C11.1517808,22.8130102 1.56230137,39.9176371 1.42290411,40.0671634 C1.42290411,40.0671634 1.42290411,40.0671634 1.42290411,40.2225533 C1.01260274,40.8338517 0.600986301,41.292692 0.328767123,41.8995925 C3.34421918,51.2171284 33.3435616,32.7374467 40.1911233,28.459824 C39.9189041,28.1563737 39.9189041,28.1563737 39.7808219,28.0068475 L39.7808219,28.0068475 Z" id="Fill-4"></path>
                    <path d="M28.5461918,22.2017119 C30.739726,22.2017119 33.2054795,22.3556359 35.5331507,22.8130102 C35.3937534,21.8982616 35.2596164,20.9805811 35.2596164,20.0658324 C35.2596164,16.8583484 36.2209315,13.8062544 37.8647671,11.3610609 C28.8236712,6.01769741 0.0565479452,-9.09911031 0.0565479452,9.37470766 L0.0565479452,34.7252658 C3.75452055,30.2981169 12.6575342,22.2017119 28.5461918,22.2017119 L28.5461918,22.2017119 Z" id="Fill-5"></path>
                    <path d="M61.2887671,19.9104424 C61.2887671,20.826657 61.1506849,21.7428716 61.0165479,22.6590862 C63.2100822,22.3556359 65.2655342,22.2017119 67.3196712,22.2017119 C83.347726,22.2017119 92.2494247,30.2922532 95.8145753,34.8733261 L95.8145753,9.52276793 C95.8145753,-8.64613382 68.0087671,5.55445931 58.4179726,11.0517468 C60.3287671,13.3474141 61.2887671,16.5548981 61.2887671,19.9104424 L61.2887671,19.9104424 Z" id="Fill-6"></path>
                    <path d="M56.2191781,28.0068475 C57.3133151,27.8529234 58.2733151,27.5494732 58.6849315,27.5494732 C84.8482192,22.9684002 94.4376986,39.9176371 94.5770959,40.0730271 C94.5770959,40.0730271 94.5770959,40.2269512 94.7151781,40.2269512 C95.1267945,40.8397155 95.5370959,41.2985558 95.8093151,41.9054563 C92.793863,51.2215262 62.7945205,32.7433104 55.9469589,28.4656878 C56.0810959,28.1563737 56.0810959,28.1563737 56.2191781,28.0068475 L56.2191781,28.0068475 Z" id="Fill-7"></path>
                </g>
                <rect id="Rectangle-116" stroke="#979797" fill="#DB1921" style="mix-blend-mode: color-burn;" x="1" y="0" width="460" height="280"></rect>
            </g>
        </g>
    </g>
</svg>