<?xml version="1.0" encoding="utf-8"?>
<!-- Generator: Adobe Illustrator 19.2.1, SVG Export Plug-In . SVG Version: 6.00 Build 0)  -->
<svg version="1.1" id="Layer_1" xmlns="http://www.w3.org/2000/svg" xmlns:xlink="http://www.w3.org/1999/xlink" x="0px" y="0px"
	 viewBox="0 0 461 280" style="enable-background:new 0 0 461 280;" xml:space="preserve">
<style type="text/css">
	.st0{fill:#DB1921;stroke:#979797;}
	.st1{opacity:0.6026;fill:#4A4A4A;enable-background:new    ;}
	.st2{opacity:0.6;fill:#4A4A4A;enable-background:new    ;}
	.st3{fill:#DB1921;}
</style>
<title>Gift box</title>
<desc>Created with Sketch.</desc>
<g id="Gift-box" transform="translate(979.000000, 0.000000)">
	<rect id="Rectangle-189" x="-978" class="st0" width="460" height="280"/>
	<path id="Path-88" class="st1" d="M-712,0h158l-247,280h-162L-712,0z"/>
	<path id="Path-96" class="st2" d="M-516.6,230.1l-96.9,50.4L-516.6,230.1z"/>
	<path id="Path-87" class="st2" d="M-936,0h101.5l-144,145V42.5L-936,0z"/>
	<path id="Path-87_1_" class="st2" d="M-560.5,280H-662l144-166v123.5L-560.5,280z"/>
	
		<g id="Page-1" transform="translate(430.892867, 224.206213) rotate(-50.000000) translate(-430.892867, -224.206213) translate(382.892867, 180.206213)">
		<path id="Fill-1" class="st3" d="M-572-730c0,5.5-4,9.9-8.9,9.9c-4.9,0-8.9-4.4-8.9-9.9c0-5.5,4-9.9,8.9-9.9
			C-576-740-572-735.5-572-730"/>
		<path id="Fill-2" class="st3" d="M-576.5-715.4l7.1,37.1l7.1-14.7h13.6L-576.5-715.4z"/>
		<path id="Fill-3" class="st3" d="M-586.5-717.1l-13.3,54.2l-7.7-17l-15.5,6.5L-586.5-717.1z"/>
		<path id="Fill-4" class="st3" d="M-589.5-722c-1.1-0.2-2.1-0.5-2.5-0.5c-26.2-4.7-35.8,12.4-35.9,12.5c0,0,0,0,0,0.2
			c-0.4,0.6-0.8,1.1-1.1,1.7c3,9.3,33-9.2,39.9-13.4C-589.4-721.8-589.4-721.8-589.5-722L-589.5-722z"/>
		<path id="Fill-5" class="st3" d="M-600.7-727.8c2.2,0,4.7,0.2,7,0.6c-0.1-0.9-0.3-1.8-0.3-2.7c0-3.2,1-6.3,2.6-8.7
			c-9-5.3-37.8-20.5-37.8-2l0,25.4C-625.5-719.7-616.6-727.8-600.7-727.8L-600.7-727.8z"/>
		<path id="Fill-6" class="st3" d="M-568-730c0,0.9-0.1,1.8-0.3,2.7c2.2-0.3,4.2-0.5,6.3-0.5c16,0,24.9,8.1,28.5,12.7v-25.4
			c0-18.2-27.8-4-37.4,1.5C-569-736.6-568-733.4-568-730L-568-730z"/>
		<path id="Fill-7" class="st3" d="M-573.1-722c1.1-0.2,2.1-0.5,2.5-0.5c26.2-4.6,35.8,12.4,35.9,12.5c0,0,0,0.2,0.1,0.2
			c0.4,0.6,0.8,1.1,1.1,1.7c-3,9.3-33-9.2-39.9-13.4C-573.2-721.8-573.2-721.8-573.1-722L-573.1-722z"/>
	</g>
</g>
</svg>
