<?xml version="1.0" encoding="UTF-8" standalone="no"?>
<svg width="38px" height="44px" viewBox="0 0 38 44" version="1.1" xmlns="http://www.w3.org/2000/svg" xmlns:xlink="http://www.w3.org/1999/xlink">
    <!-- Generator: Sketch 3.6.1 (26313) - http://www.bohemiancoding.com/sketch -->
    <title>Group 2</title>
    <desc>Created with Sketch.</desc>
    <defs></defs>
    <g id="Page-1" stroke="none" stroke-width="1" fill="none" fill-rule="evenodd">
        <g id="Footer-and-header" transform="translate(-1348.000000, -251.000000)" fill="#4A4A4A">
            <g id="Group-3" transform="translate(0.000000, 227.000000)">
                <g id="Group-Copy" transform="translate(1348.000000, 24.000000)">
                    <g id="Group-2">
                        <path d="M37.8620924,43.8724717 L0.463544561,43.8724717 L4.85504071,10.4279034 L33.6122575,10.4279034 L37.8620924,43.8724717 L37.8620924,43.8724717 Z M2.87178439,41.737712 L35.4538526,41.737712 L31.6290011,12.5626631 L6.69663587,12.5626631 L2.87178439,41.737712 L2.87178439,41.737712 Z" id="Shape"></path>
                        <path d="M28.2291331,14.9820574 L26.1042156,14.9820574 L26.1042156,9.43168225 C26.1042156,5.58911483 22.98767,2.45813397 19.1628185,2.45813397 C15.337967,2.45813397 12.2214214,5.58911483 12.2214214,9.43168225 L12.2214214,14.9820574 L10.0965039,14.9820574 L10.0965039,9.43168225 C10.0965039,4.45057634 14.2046777,0.323374293 19.1628185,0.323374293 C24.1209593,0.323374293 28.2291331,4.45057634 28.2291331,9.43168225 L28.2291331,14.9820574 L28.2291331,14.9820574 Z" id="Shape"></path>
                    </g>
                </g>
            </g>
        </g>
    </g>
</svg>